<?xml version="1.0" encoding="UTF-8"?>
<svg version="1.1" xmlns="http://www.w3.org/2000/svg" width="1080" height="1080">
<path d="M0 0 C3.67645657 0.00329391 7.35289101 -0.00503839 11.0293403 -0.01181835 C17.46181258 -0.02208488 23.89425479 -0.02496799 30.32673446 -0.02290613 C39.89280854 -0.01984737 49.45884952 -0.02819949 59.02491715 -0.03865538 C77.10830589 -0.05796936 95.19168327 -0.06362265 113.27508111 -0.06476949 C127.24524021 -0.06568967 141.21539486 -0.06981204 155.18555251 -0.07617074 C159.21140459 -0.07796593 163.23725667 -0.07974555 167.26310876 -0.0815205 C168.2640435 -0.0819626 169.26497825 -0.08240469 170.29624434 -0.08286019 C198.44099808 -0.09516413 226.58575027 -0.10306178 254.73050681 -0.10217363 C255.7910455 -0.10214247 256.85158418 -0.10211131 257.9442604 -0.10207921 C263.31911442 -0.101913 268.69396844 -0.10171492 274.06882246 -0.1015098 C275.66992475 -0.10144996 275.66992475 -0.10144996 277.30337255 -0.10138892 C279.46191863 -0.10130804 281.62046471 -0.10122445 283.77901079 -0.10113813 C317.34789545 -0.09991316 350.91673969 -0.11491785 384.48561278 -0.14228326 C422.23005525 -0.17304018 459.97447115 -0.19021355 497.71892694 -0.18835682 C501.74792257 -0.18820757 505.7769182 -0.18811015 509.80591384 -0.18804819 C511.29389174 -0.18801322 511.29389174 -0.18801322 512.81192979 -0.18797755 C528.738874 -0.18791614 544.66578295 -0.20065903 560.59271669 -0.21791271 C576.61590193 -0.23491096 592.63903591 -0.23681036 608.6622252 -0.22369407 C618.16634261 -0.21633256 627.67030371 -0.21987861 637.17440438 -0.23957875 C643.54096045 -0.25165381 649.90740435 -0.24890495 656.27395545 -0.23463776 C659.88955794 -0.22693754 663.50485992 -0.22513761 667.1204402 -0.24155246 C724.94448642 -0.48656185 776.01670393 19.48497693 817.352312 60.14433783 C823.90611783 66.7343976 829.71164713 73.75061185 835.164812 81.26933783 C835.57650634 81.83136908 835.98820067 82.39340033 836.41237059 82.97246283 C863.28900941 120.09947914 873.50185132 161.95586462 873.43414983 207.10452583 C873.43085593 210.7809824 873.43918823 214.45741684 873.44596818 218.13386613 C873.45623471 224.56633841 873.45911782 230.99878062 873.45705596 237.43126029 C873.4539972 246.99733437 873.46234933 256.56337535 873.47280521 266.12944298 C873.49211919 284.21283172 873.49777248 302.2962091 873.49891932 320.37960695 C873.4998395 334.34976604 873.50396187 348.31992069 873.51032058 362.29007834 C873.51211576 366.31593042 873.51389539 370.3417825 873.51567033 374.36763459 C873.51611243 375.36856933 873.51655452 376.36950408 873.51701002 377.40077017 C873.52931396 405.54552391 873.53721161 433.6902761 873.53632346 461.83503264 C873.5362923 462.89557133 873.53626114 463.95611001 873.53622904 465.04878623 C873.53606284 470.42364025 873.53586476 475.79849427 873.53565963 481.17334829 C873.53559979 482.77445058 873.53559979 482.77445058 873.53553875 484.40789838 C873.53545787 486.56644446 873.53537428 488.72499054 873.53528797 490.88353662 C873.53406299 524.45242129 873.54906768 558.02126552 873.57643309 591.59013861 C873.60719001 629.33458108 873.62436338 667.07899698 873.62250665 704.82345277 C873.6223574 708.8524484 873.62225998 712.88144403 873.62219802 716.91043967 C873.62216305 718.39841757 873.62216305 718.39841757 873.62212738 719.91645562 C873.62206598 735.84339983 873.63480886 751.77030878 873.65206255 767.69724252 C873.66906079 783.72042776 873.67096019 799.74356174 873.6578439 815.76675103 C873.65048239 825.27086844 873.65402844 834.77482954 873.67372858 844.27893021 C873.68580364 850.64548628 873.68305479 857.01193018 873.66878759 863.37848128 C873.66108737 866.99408377 873.65928745 870.60938575 873.67570229 874.22496603 C873.92071168 932.04901225 853.9491729 983.12122976 813.289812 1024.45683783 C806.69975223 1031.01064366 799.68353798 1036.81617296 792.164812 1042.26933783 C791.32176513 1042.88687933 791.32176513 1042.88687933 790.461687 1043.51689642 C753.33467069 1070.39353524 711.47828521 1080.60637715 666.329624 1080.53867566 C662.65316743 1080.53538176 658.97673299 1080.54371406 655.3002837 1080.55049401 C648.86781142 1080.56076054 642.43536921 1080.56364365 636.00288955 1080.56158179 C626.43681546 1080.55852303 616.87077449 1080.56687516 607.30470685 1080.57733104 C589.22131811 1080.59664502 571.13794073 1080.60229831 553.05454289 1080.60344516 C539.08438379 1080.60436533 525.11422914 1080.6084877 511.14407149 1080.61484641 C507.11821941 1080.61664159 503.09236733 1080.61842122 499.06651524 1080.62019616 C498.0655805 1080.62063826 497.06464575 1080.62108035 496.03337966 1080.62153585 C467.88862592 1080.63383979 439.74387373 1080.64173744 411.59911719 1080.64084929 C410.53857851 1080.64081813 409.47803982 1080.64078698 408.3853636 1080.64075487 C403.01050958 1080.64058867 397.63565556 1080.64039059 392.26080154 1080.64018546 C391.19340001 1080.64014557 390.12599848 1080.64010568 389.02625145 1080.64006458 C386.86770537 1080.6399837 384.70915929 1080.63990011 382.55061321 1080.6398138 C348.98172855 1080.63858882 315.41288432 1080.65359351 281.84401122 1080.68095892 C244.09956875 1080.71171584 206.35515285 1080.72888921 168.61069706 1080.72703248 C164.58170143 1080.72688323 160.5527058 1080.72678581 156.52371016 1080.72672385 C155.03573227 1080.72668888 155.03573227 1080.72668888 153.51769421 1080.72665322 C137.59075 1080.72659181 121.66384105 1080.73933469 105.73690731 1080.75658838 C89.71372207 1080.77358662 73.69058809 1080.77548602 57.6673988 1080.76236974 C48.16328139 1080.75500822 38.65932029 1080.75855427 29.15521962 1080.77825442 C22.78866355 1080.79032947 16.42221965 1080.78758062 10.05566855 1080.77331342 C6.44006606 1080.7656132 2.82476408 1080.76381328 -0.7908162 1080.78022812 C-58.61486242 1081.02523751 -109.68707993 1061.05369873 -151.022688 1020.39433783 C-157.57649383 1013.80427806 -163.38202313 1006.78806381 -168.835188 999.26933783 C-169.24688234 998.70730658 -169.65857667 998.14527533 -170.08274659 997.56621283 C-196.95938541 960.43919652 -207.17222732 918.58281104 -207.10452583 873.43414983 C-207.10123193 869.75769326 -207.10956422 866.08125882 -207.11634418 862.40480953 C-207.12661071 855.97233725 -207.12949382 849.53989504 -207.12743196 843.10741538 C-207.1243732 833.54134129 -207.13272532 823.97530032 -207.14318121 814.40923268 C-207.16249519 796.32584394 -207.16814848 778.24246656 -207.16929532 760.15906872 C-207.1702155 746.18890963 -207.17433787 732.21875497 -207.18069657 718.24859732 C-207.18249176 714.22274524 -207.18427138 710.19689316 -207.18604633 706.17104107 C-207.18670947 704.66963896 -207.18670947 704.66963896 -207.18738602 703.13790549 C-207.19968996 674.99315176 -207.20758761 646.84839956 -207.20669946 618.70364302 C-207.2066683 617.64310434 -207.20663714 616.58256565 -207.20660504 615.48988943 C-207.20643884 610.11503541 -207.20624075 604.74018139 -207.20603563 599.36532737 C-207.20599574 598.29792584 -207.20595585 597.23052431 -207.20591475 596.13077728 C-207.20583387 593.9722312 -207.20575028 591.81368512 -207.20566396 589.65513904 C-207.20443899 556.08625438 -207.21944368 522.51741015 -207.24680909 488.94853705 C-207.27756601 451.20409458 -207.29473938 413.45967868 -207.29288265 375.71522289 C-207.2927334 371.68622726 -207.29263598 367.65723163 -207.29257402 363.62823599 C-207.29255071 362.63625073 -207.2925274 361.64426546 -207.29250338 360.62222004 C-207.29244197 344.69527583 -207.30518486 328.76836688 -207.32243855 312.84143314 C-207.33943679 296.8182479 -207.34133619 280.79511392 -207.3282199 264.77192463 C-207.32085839 255.26780722 -207.32440444 245.76384612 -207.34410458 236.25974545 C-207.35617964 229.89318938 -207.35343079 223.52674548 -207.33916359 217.16019438 C-207.33146337 213.54459189 -207.32966344 209.92928991 -207.34607829 206.31370963 C-207.59108768 148.48966341 -187.6195489 97.4174459 -146.960188 56.08183783 C-140.37012823 49.528032 -133.35391398 43.7225027 -125.835188 38.26933783 C-125.27315675 37.8576435 -124.7111255 37.44594916 -124.132063 37.02177924 C-87.00504669 10.14514042 -45.14866121 -0.06770149 0 0 Z " fill="#0C0C0D" transform="translate(206.83518799953163,-0.2693378310650587)"/>
<path d="M0 0 C3.29961107 -0.00218357 6.59888535 -0.0203917 9.8984375 -0.03930664 C25.45554188 -0.08105755 40.72682817 0.67583225 56.0078125 3.81030273 C56.80799805 3.97288574 57.60818359 4.13546875 58.43261719 4.30297852 C99.86276473 13.178633 138.98732416 30.20719131 170.3125 59.11499023 C172.33506504 60.9695914 174.40515234 62.73565434 176.5078125 64.49780273 C207.54399126 91.73997968 229.66322647 134.69267212 239.5703125 174.18530273 C239.96658721 175.6042437 240.36658314 177.02214867 240.76953125 178.43920898 C253.25385852 222.96003746 251.5703125 267.9174935 251.5703125 314.18530273 C126.1703125 314.18530273 0.7703125 314.18530273 -128.4296875 314.18530273 C-127.81114733 324.08194541 -127.16481195 333.57779604 -125.6171875 343.31030273 C-125.34998901 345.00038452 -125.34998901 345.00038452 -125.07739258 346.72460938 C-123.75452319 354.79300489 -122.11272781 362.44713018 -119.4296875 370.18530273 C-119.19411133 370.8967041 -118.95853516 371.60810547 -118.71582031 372.34106445 C-107.58253235 405.8177578 -86.2721121 432.1563332 -54.6796875 448.31030273 C-34.10725821 458.52468797 -12.7814792 461.41299288 9.9453125 461.43530273 C10.74822723 461.43664215 11.55114197 461.43798157 12.37838745 461.43936157 C24.36186202 461.43502152 35.85368891 460.90366009 47.5703125 458.18530273 C49.07658203 457.86045898 49.07658203 457.86045898 50.61328125 457.52905273 C76.70136545 451.20466869 101.22535547 435.78842798 115.6953125 412.93530273 C118.42577176 408.29414082 120.93140676 403.59180873 123.3125 398.76342773 C123.62888428 398.12614746 123.94526855 397.48886719 124.27124023 396.83227539 C125.03946433 395.28420944 125.80516055 393.73488944 126.5703125 392.18530273 C136.88331114 393.26391056 147.19577975 394.34750158 157.5078125 395.43530273 C158.26640816 395.51531399 159.02500381 395.59532524 159.80658722 395.67776108 C178.4555602 397.64583301 197.09663967 399.63858457 215.70458984 401.96850586 C225.64459481 403.21290765 235.59541452 404.26416999 245.5703125 405.18530273 C245.03436804 411.91513701 243.69310583 417.80864308 241.5078125 424.18530273 C241.19763184 425.09812012 240.88745117 426.0109375 240.56787109 426.95141602 C231.51656307 452.90331916 216.60647482 475.47229909 197.5703125 495.18530273 C196.77238281 496.03479492 195.97445313 496.88428711 195.15234375 497.75952148 C158.50884194 535.83767916 103.97548471 554.99477235 52.5703125 561.18530273 C51.71985352 561.2882666 50.86939453 561.39123047 49.99316406 561.49731445 C23.11665028 564.57823318 -4.57234631 564.23947691 -31.4296875 561.18530273 C-32.67202148 561.04850098 -32.67202148 561.04850098 -33.93945312 560.90893555 C-87.135737 554.77090279 -137.64468537 533.35864263 -176.4296875 496.18530273 C-177.01508301 495.63245605 -177.60047852 495.07960938 -178.20361328 494.51000977 C-188.06274508 485.16472585 -196.55800788 475.25239066 -204.4296875 464.18530273 C-204.88182617 463.55124512 -205.33396484 462.9171875 -205.79980469 462.26391602 C-227.83038097 431.04161159 -240.77612612 395.81031938 -248.87451172 358.71069336 C-249.33849193 356.60013432 -249.82125836 354.49371663 -250.30859375 352.38842773 C-254.88294903 331.60025819 -255.89616577 310.37381416 -255.7109375 289.15649414 C-255.67939524 285.52666964 -255.66990078 281.89728309 -255.6640625 278.26733398 C-255.41307008 201.24211115 -232.71245035 125.28344053 -177.6796875 69.24780273 C-174.78718753 66.45910061 -171.79856307 63.785849 -168.74609375 61.17358398 C-167.06878574 59.73387104 -165.41243362 58.26962487 -163.76953125 56.79077148 C-118.4418018 16.49527127 -59.54318484 -0.00439888 0 0 Z " fill="#FEFEFE" transform="translate(374.4296875,112.814697265625)"/>
<path d="M0 0 C24.36924943 22.11504677 38.54373097 52.59882241 41.18017578 85.38378906 C41.18017578 89.67378906 41.18017578 93.96378906 41.18017578 98.38378906 C-43.62982422 98.38378906 -128.43982422 98.38378906 -215.81982422 98.38378906 C-213.49606763 76.30810145 -213.49606763 76.30810145 -211.56982422 69.63378906 C-211.35366455 68.85487305 -211.13750488 68.07595703 -210.91479492 67.2734375 C-200.67676099 31.54799147 -177.8988263 2.9287069 -145.69482422 -15.49121094 C-100.31521323 -40.5387524 -38.74060117 -34.40606114 0 0 Z " fill="#0D0D0E" transform="translate(461.81982421875,242.6162109375)"/>
</svg>
