<svg width="1080" height="1080" viewBox="0 0 1080 1080" fill="none" xmlns="http://www.w3.org/2000/svg">
<g clip-path="url(#clip0_3_5)">
<rect width="1080" height="1080" rx="200" fill="#0C0C0D"/>
<path d="M383.528 675.653C328.841 675.653 281.611 664.29 241.838 641.562C202.302 618.598 171.881 586.165 150.574 544.261C129.267 502.121 118.614 452.524 118.614 395.469C118.614 339.361 129.267 290.118 150.574 247.741C172.117 205.128 202.184 171.984 240.773 148.31C279.362 124.399 324.698 112.443 376.781 112.443C410.399 112.443 442.122 117.888 471.952 128.778C502.018 139.432 528.533 156.004 551.497 178.494C574.698 200.985 592.927 229.631 606.185 264.432C619.442 298.996 626.071 340.189 626.071 388.011V427.429H178.983V340.781H502.847C502.61 316.16 497.283 294.261 486.866 275.085C476.45 255.672 461.89 240.402 443.188 229.276C424.722 218.149 403.178 212.585 378.557 212.585C352.278 212.585 329.196 218.977 309.31 231.761C289.423 244.309 273.917 260.881 262.79 281.477C251.9 301.837 246.336 324.209 246.099 348.594V424.233C246.099 455.956 251.9 483.182 263.5 505.909C275.1 528.4 291.317 545.682 312.151 557.756C332.984 569.593 357.368 575.511 385.304 575.511C404.007 575.511 420.934 572.907 436.085 567.699C451.237 562.254 464.376 554.323 475.503 543.906C486.63 533.49 495.034 520.587 500.716 505.199L620.744 518.693C613.169 550.417 598.727 578.116 577.42 601.79C556.35 625.227 529.362 643.456 496.455 656.477C463.547 669.261 425.905 675.653 383.528 675.653Z" fill="white"/>
</g>
<defs>
<clipPath id="clip0_3_5">
<rect width="1080" height="1080" rx="200" fill="white"/>
</clipPath>
</defs>
</svg>
